<svg xmlns="http://www.w3.org/2000/svg" xmlns:xlink="http://www.w3.org/1999/xlink" viewBox="0 0 80 80" width="80" height="80" preserveAspectRatio="xMidYMid meet" style="width: 100%; height: 100%; transform: translate3d(0px, 0px, 0px); content-visibility: visible;"><defs><clipPath id="__lottie_element_385"><rect width="80" height="80" x="0" y="0"></rect></clipPath><radialGradient id="__lottie_element_392" spreadMethod="pad" gradientUnits="userSpaceOnUse" cx="40" cy="40" r="63.523000717163086" fx="40" fy="40"><stop offset="52%" stop-color="rgb(255,255,255)"></stop><stop offset="100%" stop-color="rgb(50,145,246)"></stop></radialGradient><clipPath id="__lottie_element_395"><path d="M0,0 L30,0 L30,8 L0,8z"></path></clipPath><clipPath id="__lottie_element_399"><path d="M0,0 L20,0 L20,8 L0,8z"></path></clipPath><clipPath id="__lottie_element_404"><path d="M0,0 L24,0 L24,52 L0,52z"></path></clipPath><g id="__lottie_element_407"><g clip-path="url(#__lottie_element_408)" transform="matrix(1,0,0,1,28,28)" opacity="1" style="display: block;"><g style="display: none;" transform="matrix(1,0,0,1,0,0)" opacity="1"><path fill="rgb(0,0,0)" fill-opacity="1" d=" M24,0 C24,0 0,0 0,0 C0,0 0,52 0,52 C0,52 24,52 24,52 C24,52 24,0 24,0z"></path></g><g clip-path="url(#__lottie_element_489)" transform="matrix(1,0,0,1,0,0)" opacity="1" style="display: block;"><g transform="matrix(1,0,0,1,0,0)" opacity="1" style="display: block;"><path fill="rgb(0,0,0)" fill-opacity="1" d=" M24,0 C24,0 0,0 0,0 C0,0 0,26 0,26 C0,26 24,26 24,26 C24,26 24,0 24,0z"></path></g></g></g></g><clipPath id="__lottie_element_408"><path d="M0,0 L24,0 L24,52 L0,52z"></path></clipPath><mask id="__lottie_element_407_1" mask-type="alpha"><use xlink:href="#__lottie_element_407"></use></mask><clipPath id="__lottie_element_413"><path d="M0,0 L20,0 L20,8 L0,8z"></path></clipPath><g id="__lottie_element_416"><g clip-path="url(#__lottie_element_417)" transform="matrix(1,0,0,1,0,0)" opacity="1" style="display: block;"><g style="display: none;" transform="matrix(1,0,0,1,10,0)" opacity="1"><path fill="rgb(0,0,0)" fill-opacity="1" d=" M20,0 C20,0 -10,0 -10,0 C-10,0 -10,8 -10,8 C-10,8 20,8 20,8 C20,8 20,0 20,0z"></path></g><g clip-path="url(#__lottie_element_437)" transform="matrix(1,0,0,1,10,0)" opacity="1" style="display: block;"><g transform="matrix(1,0,0,1,0,0)" opacity="1" style="display: block;"><path fill="rgb(0,0,0)" fill-opacity="1" d=" M10,0 C10,0 0,0 0,0 C0,0 0,8 0,8 C0,8 10,8 10,8 C10,8 10,0 10,0z"></path></g></g></g></g><clipPath id="__lottie_element_417"><path d="M0,0 L30,0 L30,8 L0,8z"></path></clipPath><mask id="__lottie_element_416_1" mask-type="alpha"><use xlink:href="#__lottie_element_416"></use></mask><clipPath id="__lottie_element_423"><path d="M0,0 L10,0 L10,8 L0,8z"></path></clipPath><clipPath id="__lottie_element_437"><path d="M0,0 L10,0 L10,8 L0,8z"></path></clipPath><clipPath id="__lottie_element_445"><path d="M0,0 L20,0 L20,8 L0,8z"></path></clipPath><g id="__lottie_element_448"><g clip-path="url(#__lottie_element_449)" transform="matrix(1,0,0,1,0,0)" opacity="1" style="display: block;"><g style="display: none;" transform="matrix(1,0,0,1,0,0)" opacity="1"><path fill="rgb(0,0,0)" fill-opacity="1" d=" M20,0 C20,0 0,0 0,0 C0,0 0,8 0,8 C0,8 20,8 20,8 C20,8 20,0 20,0z"></path></g><g clip-path="url(#__lottie_element_467)" transform="matrix(1,0,0,1,0,0)" opacity="1" style="display: block;"><g transform="matrix(1,0,0,1,0,0)" opacity="1" style="display: block;"><path fill="rgb(0,0,0)" fill-opacity="1" d=" M10,0 C10,0 0,0 0,0 C0,0 0,8 0,8 C0,8 10,8 10,8 C10,8 10,0 10,0z"></path></g></g></g></g><clipPath id="__lottie_element_449"><path d="M0,0 L20,0 L20,8 L0,8z"></path></clipPath><mask id="__lottie_element_448_1" mask-type="alpha"><use xlink:href="#__lottie_element_448"></use></mask><clipPath id="__lottie_element_454"><path d="M0,0 L10,0 L10,8 L0,8z"></path></clipPath><clipPath id="__lottie_element_467"><path d="M0,0 L10,0 L10,8 L0,8z"></path></clipPath><clipPath id="__lottie_element_476"><path d="M0,0 L24,0 L24,26 L0,26z"></path></clipPath><clipPath id="__lottie_element_489"><path d="M0,0 L24,0 L24,26 L0,26z"></path></clipPath></defs><g clip-path="url(#__lottie_element_385)"><g transform="matrix(1,0,0,1,0,0)" opacity="1" style="display: block;"><path fill="url(#__lottie_element_392)" fill-opacity="1" d=" M80,40 C80,17.923999786376953 62.07600021362305,0 40,0 C40,0 40,0 40,0 C17.923999786376953,0 0,17.923999786376953 0,40 C0,40 0,40 0,40 C0,62.07600021362305 17.923999786376953,80 40,80 C40,80 40,80 40,80 C62.07600021362305,80 80,62.07600021362305 80,40 C80,40 80,40 80,40z"></path></g><g clip-path="url(#__lottie_element_395)" transform="matrix(1,0,0,1,35,36)" opacity="1" style="display: block;"><g mask="url(#__lottie_element_416_1)" style="display: block;"><g clip-path="url(#__lottie_element_413)" transform="matrix(1,0,0,1,0,0)" opacity="1"><g clip-path="url(#__lottie_element_423)" transform="matrix(1,0,0,1,0.11314868927001953,0)" opacity="1" style="display: block;"><g transform="matrix(1.333299994468689,0,0,1.333299994468689,0,0)" opacity="1" style="display: block;"><g opacity="1" transform="matrix(1,0,0,1,0,0)"><g opacity="1" transform="matrix(1,0,0,1,0,0)"><path fill-rule="evenodd" fill="rgb(51,145,244)" fill-opacity="1" d=" M3.869999885559082,0.07000000029802322 C4.239999771118164,-0.07999999821186066 4.670000076293945,0 4.960000038146973,0.28999999165534973 C4.960000038146973,0.28999999165534973 6.960000038146973,2.2899999618530273 6.960000038146973,2.2899999618530273 C7.349999904632568,2.680000066757202 7.349999904632568,3.319999933242798 6.960000038146973,3.7100000381469727 C6.960000038146973,3.7100000381469727 4.960000038146973,5.710000038146973 4.960000038146973,5.710000038146973 C4.670000076293945,6 4.239999771118164,6.079999923706055 3.869999885559082,5.929999828338623 C3.5,5.769999980926514 3.25,5.409999847412109 3.25,5 C3.25,5 3.25,4 3.25,4 C3.25,4 1.25,4 1.25,4 C0.699999988079071,4 0.25,3.549999952316284 0.25,3 C0.25,2.450000047683716 0.699999988079071,2 1.25,2 C1.25,2 3.25,2 3.25,2 C3.25,2 3.25,1 3.25,1 C3.25,0.5899999737739563 3.5,0.23000000417232513 3.869999885559082,0.07000000029802322 C3.869999885559082,0.07000000029802322 3.869999885559082,0.07000000029802322 3.869999885559082,0.07000000029802322z"></path></g></g></g><g transform="matrix(1,0,0,1,0,0)" opacity="1" style="display: block;"><path fill="rgb(0,0,0)" fill-opacity="0" d=" M10,0 C10,0 0,0 0,0 C0,0 0,8 0,8 C0,8 10,8 10,8 C10,8 10,0 10,0z"></path></g></g></g></g></g><g clip-path="url(#__lottie_element_399)" transform="matrix(1,0,0,1,25,36)" opacity="1" style="display: block;"><g mask="url(#__lottie_element_448_1)" style="display: block;"><g clip-path="url(#__lottie_element_445)" transform="matrix(1,0,0,1,0,0)" opacity="1"><g clip-path="url(#__lottie_element_454)" transform="matrix(1,0,0,1,9.88685131072998,0)" opacity="1" style="display: block;"><g transform="matrix(1.333299994468689,0,0,1.333299994468689,0,0)" opacity="1" style="display: block;"><g opacity="1" transform="matrix(1,0,0,1,0,0)"><g opacity="1" transform="matrix(1,0,0,1,0,0)"><path fill-rule="evenodd" fill="rgb(51,145,244)" fill-opacity="1" d=" M3.630000114440918,0.07000000029802322 C4.010000228881836,0.23000000417232513 4.25,0.5899999737739563 4.25,1 C4.25,1 4.25,2 4.25,2 C4.25,2 6.25,2 6.25,2 C6.800000190734863,2 7.25,2.450000047683716 7.25,3 C7.25,3.549999952316284 6.800000190734863,4 6.25,4 C6.25,4 4.25,4 4.25,4 C4.25,4 4.25,5 4.25,5 C4.25,5.409999847412109 4.010000228881836,5.769999980926514 3.630000114440918,5.929999828338623 C3.259999990463257,6.079999923706055 2.8299999237060547,6 2.5399999618530273,5.710000038146973 C2.5399999618530273,5.710000038146973 0.5400000214576721,3.7100000381469727 0.5400000214576721,3.7100000381469727 C0.15000000596046448,3.319999933242798 0.15000000596046448,2.680000066757202 0.5400000214576721,2.2899999618530273 C0.5400000214576721,2.2899999618530273 2.5399999618530273,0.28999999165534973 2.5399999618530273,0.28999999165534973 C2.8299999237060547,0 3.259999990463257,-0.07999999821186066 3.630000114440918,0.07000000029802322 C3.630000114440918,0.07000000029802322 3.630000114440918,0.07000000029802322 3.630000114440918,0.07000000029802322z"></path></g></g></g><g transform="matrix(1,0,0,1,0,0)" opacity="1" style="display: block;"><path fill="rgb(0,0,0)" fill-opacity="0" d=" M10,0 C10,0 0,0 0,0 C0,0 0,8 0,8 C0,8 10,8 10,8 C10,8 10,0 10,0z"></path></g></g></g></g></g><g mask="url(#__lottie_element_407_1)" style="display: block;"><g clip-path="url(#__lottie_element_404)" transform="matrix(1,0,0,1,28,28)" opacity="1"><g clip-path="url(#__lottie_element_476)" transform="matrix(1,0,0,1,0,5.032563209533691)" opacity="1" style="display: block;"><g transform="matrix(1.333299994468689,0,0,1.333299994468689,0,0)" opacity="1" style="display: block;"><g opacity="1" transform="matrix(1,0,0,1,0,0)"><g opacity="1" transform="matrix(1,0,0,1,0,0)"><path fill-rule="evenodd" fill="rgb(51,145,244)" fill-opacity="1" d=" M0,18.75 C0,14.470000267028809 3.4700000286102295,11 7.75,11 C7.75,11 9.75,11 9.75,11 C14.029999732971191,11 17.5,14.470000267028809 17.5,18.75 C17.5,19.15999984741211 17.15999984741211,19.5 16.75,19.5 C16.75,19.5 0.75,19.5 0.75,19.5 C0.3400000035762787,19.5 0,19.15999984741211 0,18.75 C0,18.75 0,18.75 0,18.75z M4,4.75 C4,2.130000114440918 6.130000114440918,0 8.75,0 C11.380000114440918,0 13.5,2.130000114440918 13.5,4.75 C13.5,7.380000114440918 11.380000114440918,9.5 8.75,9.5 C6.130000114440918,9.5 4,7.380000114440918 4,4.75 C4,4.75 4,4.75 4,4.75z"></path></g></g></g><g transform="matrix(1,0,0,1,0,0)" opacity="1" style="display: block;"><path fill="rgb(0,0,0)" fill-opacity="0" d=" M24,0 C24,0 0,0 0,0 C0,0 0,26 0,26 C0,26 24,26 24,26 C24,26 24,0 24,0z"></path></g></g></g></g></g></svg>