<svg xmlns="http://www.w3.org/2000/svg" xmlns:xlink="http://www.w3.org/1999/xlink" viewBox="0 0 80 80" width="80" height="80" preserveAspectRatio="xMidYMid meet" style="width: 100%; height: 100%; transform: translate3d(0px, 0px, 0px); content-visibility: visible;"><defs><clipPath id="__lottie_element_5"><rect width="80" height="80" x="0" y="0"></rect></clipPath><radialGradient id="__lottie_element_12" spreadMethod="pad" gradientUnits="userSpaceOnUse" cx="40" cy="40" r="63.523000717163086" fx="40" fy="40"><stop offset="52%" stop-color="rgb(255,255,255)"></stop><stop offset="100%" stop-color="rgb(50,217,246)"></stop></radialGradient><clipPath id="__lottie_element_16"><path d="M0,0 L28,0 L28,32 L0,32z"></path></clipPath><g id="__lottie_element_19"><g clip-path="url(#__lottie_element_20)" transform="matrix(1,0,0,1,26,10)" opacity="1" style="display: block;"><g style="display: none;" transform="matrix(1,0,0,1,0,16)" opacity="1"><path fill="rgb(0,0,0)" fill-opacity="1" d=" M28,-16 C28,-16 0,-16 0,-16 C0,-16 0,32 0,32 C0,32 28,32 28,32 C28,32 28,-16 28,-16z"></path></g><g clip-path="url(#__lottie_element_67)" transform="matrix(1,0,0,1,0,16)" opacity="1" style="display: block;"><g transform="matrix(1,0,0,1,0,0)" opacity="1" style="display: block;"><path fill="rgb(0,0,0)" fill-opacity="1" d=" M28,0 C28,0 0,0 0,0 C0,0 0,16 0,16 C0,16 28,16 28,16 C28,16 28,0 28,0z"></path></g></g></g></g><clipPath id="__lottie_element_20"><path d="M0,0 L28,0 L28,48 L0,48z"></path></clipPath><clipPath id="__lottie_element_25"><path d="M0,0 L22,0 L22,16 L0,16z"></path></clipPath><g id="__lottie_element_28"><g clip-path="url(#__lottie_element_29)" transform="matrix(1,0,0,1,43,36)" opacity="1" style="display: block;"><g style="display: none;" transform="matrix(1,0,0,1,0,0)" opacity="1"><path fill="rgb(0,0,0)" fill-opacity="1" d=" M22,0 C22,0 0,0 0,0 C0,0 0,16 0,16 C0,16 22,16 22,16 C22,16 22,0 22,0z"></path></g><g clip-path="url(#__lottie_element_89)" transform="matrix(1,0,0,1,0,0)" opacity="1" style="display: block;"><g transform="matrix(1,0,0,1,0,0)" opacity="1" style="display: block;"><path fill="rgb(0,0,0)" fill-opacity="1" d=" M11,0 C11,0 0,0 0,0 C0,0 0,16 0,16 C0,16 11,16 11,16 C11,16 11,0 11,0z"></path></g></g></g></g><clipPath id="__lottie_element_29"><path d="M0,0 L22,0 L22,16 L0,16z"></path></clipPath><clipPath id="__lottie_element_34"><path d="M0,0 L27,0 L27,24 L0,24z"></path></clipPath><g id="__lottie_element_37"><g clip-path="url(#__lottie_element_38)" transform="matrix(1,0,0,1,26,42)" opacity="1" style="display: block;"><g style="display: none;" transform="matrix(1,0,0,1,0,0)" opacity="1"><path fill="rgb(0,0,0)" fill-opacity="1" d=" M27,0 C27,0 0,0 0,0 C0,0 0,24 0,24 C0,24 27,24 27,24 C27,24 27,0 27,0z"></path></g><g clip-path="url(#__lottie_element_111)" transform="matrix(1,0,0,1,0,0)" opacity="1" style="display: block;"><g transform="matrix(1,0,0,1,0,0)" opacity="1" style="display: block;"><path fill="rgb(0,0,0)" fill-opacity="1" d=" M27,0 C27,0 0,0 0,0 C0,0 0,12 0,12 C0,12 27,12 27,12 C27,12 27,0 27,0z"></path></g></g></g></g><clipPath id="__lottie_element_38"><path d="M0,0 L27,0 L27,24 L0,24z"></path></clipPath><clipPath id="__lottie_element_43"><path d="M0,0 L24,0 L24,16 L0,16z"></path></clipPath><g id="__lottie_element_46"><g clip-path="url(#__lottie_element_47)" transform="matrix(1,0,0,1,13,36)" opacity="1" style="display: block;"><g style="display: none;" transform="matrix(1,0,0,1,12,0)" opacity="1"><path fill="rgb(0,0,0)" fill-opacity="1" d=" M24,0 C24,0 -12,0 -12,0 C-12,0 -12,16 -12,16 C-12,16 24,16 24,16 C24,16 24,0 24,0z"></path></g><g clip-path="url(#__lottie_element_140)" transform="matrix(1,0,0,1,12,0)" opacity="1" style="display: block;"><g transform="matrix(1,0,0,1,0,0)" opacity="1" style="display: block;"><path fill="rgb(0,0,0)" fill-opacity="1" d=" M12,0 C12,0 0,0 0,0 C0,0 0,16 0,16 C0,16 12,16 12,16 C12,16 12,0 12,0z"></path></g></g></g></g><clipPath id="__lottie_element_47"><path d="M0,0 L36,0 L36,16 L0,16z"></path></clipPath><mask id="__lottie_element_46_1" mask-type="alpha"><use xlink:href="#__lottie_element_46"></use></mask><mask id="__lottie_element_37_1" mask-type="alpha"><use xlink:href="#__lottie_element_37"></use></mask><mask id="__lottie_element_28_1" mask-type="alpha"><use xlink:href="#__lottie_element_28"></use></mask><mask id="__lottie_element_19_1" mask-type="alpha"><use xlink:href="#__lottie_element_19"></use></mask><clipPath id="__lottie_element_53"><path d="M0,0 L28,0 L28,16 L0,16z"></path></clipPath><clipPath id="__lottie_element_67"><path d="M0,0 L28,0 L28,16 L0,16z"></path></clipPath><clipPath id="__lottie_element_76"><path d="M0,0 L11,0 L11,16 L0,16z"></path></clipPath><clipPath id="__lottie_element_89"><path d="M0,0 L11,0 L11,16 L0,16z"></path></clipPath><clipPath id="__lottie_element_98"><path d="M0,0 L27,0 L27,12 L0,12z"></path></clipPath><clipPath id="__lottie_element_111"><path d="M0,0 L27,0 L27,12 L0,12z"></path></clipPath><clipPath id="__lottie_element_121"><path d="M0,0 L12,0 L12,16 L0,16z"></path></clipPath><clipPath id="__lottie_element_126"><path d="M0,0 L11,0 L11,16 L0,16z"></path></clipPath><clipPath id="__lottie_element_140"><path d="M0,0 L12,0 L12,16 L0,16z"></path></clipPath></defs><g clip-path="url(#__lottie_element_5)"><g transform="matrix(1,0,0,1,0,0)" opacity="1" style="display: block;"><path fill="url(#__lottie_element_12)" fill-opacity="1" d=" M80,40 C80,17.923999786376953 62.07600021362305,0 40,0 C40,0 40,0 40,0 C17.923999786376953,0 0,17.923999786376953 0,40 C0,40 0,40 0,40 C0,62.07600021362305 17.923999786376953,80 40,80 C40,80 40,80 40,80 C62.07600021362305,80 80,62.07600021362305 80,40 C80,40 80,40 80,40z"></path></g><g mask="url(#__lottie_element_19_1)" style="display: block;"><g clip-path="url(#__lottie_element_16)" transform="matrix(1,0,0,1,26,10)" opacity="1"><g clip-path="url(#__lottie_element_53)" transform="matrix(1,0,0,1,0,7.957949638366699)" opacity="1" style="display: block;"><g transform="matrix(1.333299994468689,0,0,1.333299994468689,0,0)" opacity="1" style="display: block;"><g opacity="1" transform="matrix(1,0,0,1,0,0)"><g opacity="1" transform="matrix(1,0,0,1,0,0)"><path fill="rgb(51,216,244)" fill-opacity="1" d=" M11.75,0.949999988079071 C10.84000015258789,0.36000001430511475 9.65999984741211,0.36000001430511475 8.75,0.949999988079071 C8.75,0.949999988079071 0.30000001192092896,6.440000057220459 0.30000001192092896,6.440000057220459 C0.27000001072883606,6.460000038146973 0.23000000417232513,6.480000019073486 0.20000000298023224,6.5 C0.3499999940395355,6.559999942779541 0.5,6.639999866485596 0.6399999856948853,6.71999979019165 C2.2799999713897705,7.71999979019165 4.400000095367432,8.960000038146973 6.110000133514404,9.960000038146973 C6.96999979019165,10.460000038146973 7.71999979019165,10.899999618530273 8.260000228881836,11.210000038146973 C8.479999542236328,11.34000015258789 8.65999984741211,11.449999809265137 8.800000190734863,11.529999732971191 C9.680000305175781,10.979999542236328 10.800000190734863,10.979999542236328 11.680000305175781,11.520000457763672 C11.819999694824219,11.430000305175781 11.989999771118164,11.319999694824219 12.199999809265137,11.1899995803833 C12.729999542236328,10.859999656677246 13.470000267028809,10.399999618530273 14.319999694824219,9.880000114440918 C16.020000457763672,8.84000015258789 18.15999984741211,7.579999923706055 19.90999984741211,6.699999809265137 C20.040000915527344,6.630000114440918 20.18000030517578,6.570000171661377 20.31999969482422,6.519999980926514 C20.280000686645508,6.489999771118164 20.239999771118164,6.460000038146973 20.200000762939453,6.440000057220459 C20.200000762939453,6.440000057220459 11.75,0.949999988079071 11.75,0.949999988079071z"></path></g></g></g><g transform="matrix(1,0,0,1,0,0)" opacity="1" style="display: block;"><path fill="rgb(0,0,0)" fill-opacity="0" d=" M28,0 C28,0 0,0 0,0 C0,0 0,16 0,16 C0,16 28,16 28,16 C28,16 28,0 28,0z"></path></g></g></g></g><g mask="url(#__lottie_element_28_1)" style="display: block;"><g clip-path="url(#__lottie_element_25)" transform="matrix(1,0,0,1,43,36)" opacity="1"><g clip-path="url(#__lottie_element_76)" transform="matrix(1,0,0,1,5.528910160064697,0)" opacity="1" style="display: block;"><g transform="matrix(1.333299994468689,0,0,1.333299994468689,0,0)" opacity="1" style="display: block;"><g opacity="1" transform="matrix(1,0,0,1,0,0)"><g opacity="1" transform="matrix(1,0,0,1,0,0)"><path fill="rgb(51,216,244)" fill-opacity="1" d=" M8.25,0.3799999952316284 C8.100000381469727,0.4300000071525574 7.960000038146973,0.47999998927116394 7.840000152587891,0.5400000214576721 C6.150000095367432,1.3899999856948853 4.039999961853027,2.630000114440918 2.3499999046325684,3.6600000858306885 C1.5099999904632568,4.170000076293945 0.7699999809265137,4.630000114440918 0.25,4.960000038146973 C0.25,4.960000038146973 0.20999999344348907,4.980000019073486 0.20999999344348907,4.980000019073486 C1.340000033378601,5.840000152587891 2.740000009536743,6.920000076293945 4.050000190734863,7.960000038146973 C5.789999961853027,9.34000015258789 7.440000057220459,10.699999809265137 8.050000190734863,11.359999656677246 C8.050000190734863,11.359999656677246 8.0600004196167,11.369999885559082 8.0600004196167,11.369999885559082 C8.180000305175781,11.0600004196167 8.25,10.720000267028809 8.25,10.359999656677246 C8.25,10.359999656677246 8.25,0.4099999964237213 8.25,0.4099999964237213 C8.25,0.4000000059604645 8.25,0.38999998569488525 8.25,0.3799999952316284 C8.25,0.3799999952316284 8.25,0.3799999952316284 8.25,0.3799999952316284z"></path></g></g></g><g transform="matrix(1,0,0,1,0,0)" opacity="1" style="display: block;"><path fill="rgb(0,0,0)" fill-opacity="0" d=" M11,0 C11,0 0,0 0,0 C0,0 0,16 0,16 C0,16 11,16 11,16 C11,16 11,0 11,0z"></path></g></g></g></g><g mask="url(#__lottie_element_37_1)" style="display: block;"><g clip-path="url(#__lottie_element_34)" transform="matrix(1,0,0,1,26,42)" opacity="1"><g clip-path="url(#__lottie_element_98)" transform="matrix(1,0,0,1,0,6.031538009643555)" opacity="1" style="display: block;"><g transform="matrix(1.333299994468689,0,0,1.333299994468689,0,0)" opacity="1" style="display: block;"><g opacity="1" transform="matrix(1,0,0,1,0,0)"><g opacity="1" transform="matrix(1,0,0,1,0,0)"><path fill="rgb(51,216,244)" fill-opacity="1" d=" M19.8799991607666,8.079999923706055 C19.81999969482422,8.010000228881836 19.760000228881836,7.940000057220459 19.700000762939453,7.869999885559082 C19.190000534057617,7.320000171661377 17.649999618530273,6.039999961853027 15.869999885559082,4.630000114440918 C14.109999656677246,3.240000009536743 12.1899995803833,1.7699999809265137 10.989999771118164,0.8600000143051147 C10.550000190734863,0.5299999713897705 9.949999809265137,0.5299999713897705 9.510000228881836,0.8600000143051147 C8.3100004196167,1.7699999809265137 6.389999866485596,3.240000009536743 4.639999866485596,4.630000114440918 C2.8499999046325684,6.039999961853027 1.2999999523162842,7.320000171661377 0.800000011920929,7.869999885559082 C0.7400000095367432,7.940000057220459 0.6800000071525574,8.010000228881836 0.6200000047683716,8.079999923706055 C1.0700000524520874,8.420000076293945 1.6399999856948853,8.609999656677246 2.25,8.609999656677246 C2.25,8.609999656677246 18.25,8.609999656677246 18.25,8.609999656677246 C18.860000610351562,8.609999656677246 19.420000076293945,8.420000076293945 19.8799991607666,8.079999923706055 C19.8799991607666,8.079999923706055 19.8799991607666,8.079999923706055 19.8799991607666,8.079999923706055z"></path></g></g></g><g transform="matrix(1,0,0,1,0,0)" opacity="1" style="display: block;"><path fill="rgb(0,0,0)" fill-opacity="0" d=" M27,0 C27,0 0,0 0,0 C0,0 0,12 0,12 C0,12 27,12 27,12 C27,12 27,0 27,0z"></path></g></g></g></g><g mask="url(#__lottie_element_46_1)" style="display: block;"><g clip-path="url(#__lottie_element_43)" transform="matrix(1,0,0,1,13,36)" opacity="1"><g clip-path="url(#__lottie_element_121)" transform="matrix(1,0,0,1,5.968461990356445,0)" opacity="1" style="display: block;"><g clip-path="url(#__lottie_element_126)" transform="matrix(1.09089994430542,0,0,1.09089994430542,0,-0.7269999980926514)" opacity="1" style="display: block;"><g transform="matrix(1.333299994468689,0,0,1.333299994468689,0,0)" opacity="1" style="display: block;"><g opacity="1" transform="matrix(1,0,0,1,0,0)"><g opacity="1" transform="matrix(1,0,0,1,0,0)"><path fill="rgb(51,216,244)" fill-opacity="1" d=" M0.4399999976158142,11.369999885559082 C0.4399999976158142,11.369999885559082 0.44999998807907104,11.359999656677246 0.44999998807907104,11.359999656677246 C1.059999942779541,10.699999809265137 2.7100000381469727,9.34000015258789 4.449999809265137,7.960000038146973 C5.75,6.940000057220459 7.130000114440918,5.869999885559082 8.25,5.010000228881836 C7.710000038146973,4.699999809265137 6.960000038146973,4.260000228881836 6.110000133514404,3.759999990463257 C4.400000095367432,2.759999990463257 2.259999990463257,1.5099999904632568 0.6100000143051147,0.5099999904632568 C0.5,0.44999998807907104 0.38999998569488525,0.38999998569488525 0.25,0.3400000035762787 C0.25,0.36000001430511475 0.25,0.38999998569488525 0.25,0.4099999964237213 C0.25,0.4099999964237213 0.25,10.359999656677246 0.25,10.359999656677246 C0.25,10.720000267028809 0.3199999928474426,11.0600004196167 0.4399999976158142,11.369999885559082 C0.4399999976158142,11.369999885559082 0.4399999976158142,11.369999885559082 0.4399999976158142,11.369999885559082z"></path></g></g></g><g transform="matrix(1,0,0,1,0,0)" opacity="1" style="display: block;"><path fill="rgb(0,0,0)" fill-opacity="0" d=" M11,0 C11,0 0,0 0,0 C0,0 0,16 0,16 C0,16 11,16 11,16 C11,16 11,0 11,0z"></path></g></g></g></g></g></g></svg>