<svg xmlns="http://www.w3.org/2000/svg" xmlns:xlink="http://www.w3.org/1999/xlink" viewBox="0 0 80 80" width="80" height="80" preserveAspectRatio="xMidYMid meet" style="width: 100%; height: 100%; transform: translate3d(0px, 0px, 0px); content-visibility: visible;"><defs><clipPath id="__lottie_element_496"><rect width="80" height="80" x="0" y="0"></rect></clipPath><radialGradient id="__lottie_element_503" spreadMethod="pad" gradientUnits="userSpaceOnUse" cx="40" cy="40" r="63.523000717163086" fx="40" fy="40"><stop offset="52%" stop-color="rgb(255,255,255)"></stop><stop offset="100%" stop-color="rgb(246,194,50)"></stop></radialGradient><clipPath id="__lottie_element_507"><path d="M0,0 L13,0 L13,13 L0,13z"></path></clipPath><clipPath id="__lottie_element_512"><path d="M0,0 L13,0 L13,13 L0,13z"></path></clipPath><clipPath id="__lottie_element_517"><path d="M0,0 L13,0 L13,13 L0,13z"></path></clipPath><clipPath id="__lottie_element_522"><path d="M0,0 L13,0 L13,13 L0,13z"></path></clipPath><clipPath id="__lottie_element_526"><path d="M0,0 L13,0 L13,13 L0,13z"></path></clipPath><clipPath id="__lottie_element_536"><path d="M0,0 L13,0 L13,13 L0,13z"></path></clipPath><clipPath id="__lottie_element_546"><path d="M0,0 L13,0 L13,13 L0,13z"></path></clipPath><clipPath id="__lottie_element_556"><path d="M0,0 L13,0 L13,13 L0,13z"></path></clipPath></defs><g clip-path="url(#__lottie_element_496)"><g transform="matrix(1,0,0,1,0,0)" opacity="1" style="display: block;"><path fill="url(#__lottie_element_503)" fill-opacity="1" d=" M80,40 C80,17.923999786376953 62.07600021362305,0 40,0 C40,0 40,0 40,0 C17.923999786376953,0 0,17.923999786376953 0,40 C0,40 0,40 0,40 C0,62.07600021362305 17.923999786376953,80 40,80 C40,80 40,80 40,80 C62.07600021362305,80 80,62.07600021362305 80,40 C80,40 80,40 80,40z"></path></g><g clip-path="url(#__lottie_element_507)" transform="matrix(1,0,0,1,41,26)" opacity="1" style="display: block;"><g clip-path="url(#__lottie_element_526)" transform="matrix(1,0,0,1,0,0)" opacity="1" style="display: block;"><g transform="matrix(1.333299994468689,0,0,1.333299994468689,0,0)" opacity="1" style="display: block;"><g opacity="1" transform="matrix(1,0,0,1,0,0)"><g opacity="1" transform="matrix(1,0,0,1,0,0)"><path fill-rule="evenodd" fill="rgb(244,193,51)" fill-opacity="1" d=" M0.25,4.75 C0.25,2.130000114440918 2.380000114440918,0 5,0 C7.630000114440918,0 9.75,2.130000114440918 9.75,4.75 C9.75,7.380000114440918 7.630000114440918,9.5 5,9.5 C2.380000114440918,9.5 0.25,7.380000114440918 0.25,4.75 C0.25,4.75 0.25,4.75 0.25,4.75z"></path></g></g></g><g transform="matrix(1,0,0,1,0,0)" opacity="1" style="display: block;"><path fill="rgb(0,0,0)" fill-opacity="0" d=" M13,0 C13,0 0,0 0,0 C0,0 0,13 0,13 C0,13 13,13 13,13 C13,13 13,0 13,0z"></path></g></g></g><g clip-path="url(#__lottie_element_512)" transform="matrix(1,0,0,1,26,26)" opacity="1" style="display: block;"><g clip-path="url(#__lottie_element_536)" transform="matrix(1,0,0,1,0,0)" opacity="1" style="display: block;"><g transform="matrix(1.333299994468689,0,0,1.333299994468689,0,0)" opacity="1" style="display: block;"><g opacity="1" transform="matrix(1,0,0,1,0,0)"><g opacity="1" transform="matrix(1,0,0,1,0,0)"><path fill-rule="evenodd" fill="rgb(244,193,51)" fill-opacity="1" d=" M0,4.75 C0,2.130000114440918 2.130000114440918,0 4.75,0 C7.380000114440918,0 9.5,2.130000114440918 9.5,4.75 C9.5,7.380000114440918 7.380000114440918,9.5 4.75,9.5 C2.130000114440918,9.5 0,7.380000114440918 0,4.75 C0,4.75 0,4.75 0,4.75z"></path></g></g></g><g transform="matrix(1,0,0,1,0,0)" opacity="1" style="display: block;"><path fill="rgb(0,0,0)" fill-opacity="0" d=" M13,0 C13,0 0,0 0,0 C0,0 0,13 0,13 C0,13 13,13 13,13 C13,13 13,0 13,0z"></path></g></g></g><g clip-path="url(#__lottie_element_517)" transform="matrix(1.5,0,0,1.5,37.75,37.75)" opacity="0" style="display: block;"><g clip-path="url(#__lottie_element_546)" transform="matrix(1,0,0,1,0,0)" opacity="1" style="display: block;"><g transform="matrix(1.333299994468689,0,0,1.333299994468689,0,0)" opacity="1" style="display: block;"><g opacity="1" transform="matrix(1,0,0,1,0,0)"><g opacity="1" transform="matrix(1,0,0,1,0,0)"><path fill-rule="evenodd" fill="rgb(244,193,51)" fill-opacity="1" d=" M0.25,5 C0.25,2.380000114440918 2.380000114440918,0.25 5,0.25 C7.630000114440918,0.25 9.75,2.380000114440918 9.75,5 C9.75,7.630000114440918 7.630000114440918,9.75 5,9.75 C2.380000114440918,9.75 0.25,7.630000114440918 0.25,5 C0.25,5 0.25,5 0.25,5z"></path></g></g></g><g transform="matrix(1,0,0,1,0,0)" opacity="1" style="display: block;"><path fill="rgb(0,0,0)" fill-opacity="0" d=" M13,0 C13,0 0,0 0,0 C0,0 0,13 0,13 C0,13 13,13 13,13 C13,13 13,0 13,0z"></path></g></g></g><g clip-path="url(#__lottie_element_522)" transform="matrix(1.265183448791504,0,0,1.265183448791504,24.276308059692383,39.27630615234375)" opacity="0.46963297376081187" style="display: block;"><g clip-path="url(#__lottie_element_556)" transform="matrix(1,0,0,1,0,0)" opacity="1" style="display: block;"><g transform="matrix(1.333299994468689,0,0,1.333299994468689,0,0)" opacity="1" style="display: block;"><g opacity="1" transform="matrix(1,0,0,1,0,0)"><g opacity="1" transform="matrix(1,0,0,1,0,0)"><path fill-rule="evenodd" fill="rgb(244,193,51)" fill-opacity="1" d=" M0,5 C0,2.380000114440918 2.130000114440918,0.25 4.75,0.25 C7.380000114440918,0.25 9.5,2.380000114440918 9.5,5 C9.5,7.630000114440918 7.380000114440918,9.75 4.75,9.75 C2.130000114440918,9.75 0,7.630000114440918 0,5 C0,5 0,5 0,5z"></path></g></g></g><g transform="matrix(1,0,0,1,0,0)" opacity="1" style="display: block;"><path fill="rgb(0,0,0)" fill-opacity="0" d=" M13,0 C13,0 0,0 0,0 C0,0 0,13 0,13 C0,13 13,13 13,13 C13,13 13,0 13,0z"></path></g></g></g></g></svg>