<svg xmlns="http://www.w3.org/2000/svg" xmlns:xlink="http://www.w3.org/1999/xlink" viewBox="0 0 80 80" width="80" height="80" preserveAspectRatio="xMidYMid meet" style="width: 100%; height: 100%; transform: translate3d(0px, 0px, 0px); content-visibility: visible;"><defs><clipPath id="__lottie_element_147"><rect width="80" height="80" x="0" y="0"></rect></clipPath><radialGradient id="__lottie_element_154" spreadMethod="pad" gradientUnits="userSpaceOnUse" cx="40" cy="40" r="63.523000717163086" fx="40" fy="40"><stop offset="52%" stop-color="rgb(255,255,255)"></stop><stop offset="100%" stop-color="rgb(50,72,246)"></stop></radialGradient><clipPath id="__lottie_element_158"><path d="M0,0 L25,0 L25,25 L0,25z"></path></clipPath><clipPath id="__lottie_element_163"><path d="M0,0 L50,0 L50,40 L0,40z"></path></clipPath><clipPath id="__lottie_element_175"><path d="M0,0 L9,0 L9,9 L0,9z"></path></clipPath><clipPath id="__lottie_element_180"><path d="M0,0 L9,0 L9,9 L0,9z"></path></clipPath><clipPath id="__lottie_element_185"><path d="M0,0 L9,0 L9,9 L0,9z"></path></clipPath><clipPath id="__lottie_element_190"><path d="M0,0 L7,0 L7,7 L0,7z"></path></clipPath><clipPath id="__lottie_element_195"><path d="M0,0 L7,0 L7,7 L0,7z"></path></clipPath><clipPath id="__lottie_element_200"><path d="M0,0 L7,0 L7,7 L0,7z"></path></clipPath><clipPath id="__lottie_element_205"><path d="M0,0 L7,0 L7,7 L0,7z"></path></clipPath><clipPath id="__lottie_element_210"><path d="M0,0 L7,0 L7,7 L0,7z"></path></clipPath><clipPath id="__lottie_element_215"><path d="M0,0 L7,0 L7,7 L0,7z"></path></clipPath><clipPath id="__lottie_element_220"><path d="M0,0 L7,0 L7,7 L0,7z"></path></clipPath><clipPath id="__lottie_element_225"><path d="M0,0 L27,0 L27,24 L0,24z"></path></clipPath><clipPath id="__lottie_element_229"><path d="M0,0 L24,0 L24,22 L0,22z"></path></clipPath><clipPath id="__lottie_element_234"><path d="M0,0 L11,0 L11,11 L0,11z"></path></clipPath><clipPath id="__lottie_element_245"><path d="M0,0 L11,0 L11,11 L0,11z"></path></clipPath><clipPath id="__lottie_element_256"><path d="M0,0 L11,0 L11,11 L0,11z"></path></clipPath><clipPath id="__lottie_element_310"><path d="M0,0 L9,0 L9,9 L0,9z"></path></clipPath><clipPath id="__lottie_element_315"><path d="M0,0 L7,0 L7,7 L0,7z"></path></clipPath><clipPath id="__lottie_element_320"><path d="M0,0 L7,0 L7,7 L0,7z"></path></clipPath><clipPath id="__lottie_element_325"><path d="M0,0 L11,0 L11,11 L0,11z"></path></clipPath><clipPath id="__lottie_element_349"><path d="M0,0 L9,0 L9,9 L0,9z"></path></clipPath><clipPath id="__lottie_element_354"><path d="M0,0 L7,0 L7,7 L0,7z"></path></clipPath><clipPath id="__lottie_element_359"><path d="M0,0 L7,0 L7,7 L0,7z"></path></clipPath><clipPath id="__lottie_element_364"><path d="M0,0 L11,0 L11,11 L0,11z"></path></clipPath></defs><g clip-path="url(#__lottie_element_147)"><g transform="matrix(1,0,0,1,0,0)" opacity="1" style="display: block;"><path fill="url(#__lottie_element_154)" fill-opacity="1" d=" M80,40 C80,17.923999786376953 62.07600021362305,0 40,0 C40,0 40,0 40,0 C17.923999786376953,0 0,17.923999786376953 0,40 C0,40 0,40 0,40 C0,62.07600021362305 17.923999786376953,80 40,80 C40,80 40,80 40,80 C62.07600021362305,80 80,62.07600021362305 80,40 C80,40 80,40 80,40z"></path></g><g clip-path="url(#__lottie_element_158)" transform="matrix(1,0,0,1,30,25)" opacity="1" style="display: block;"><g transform="matrix(1.333299994468689,0,0,1.333299994468689,0,0)" opacity="1" style="display: block;"><g opacity="1" transform="matrix(1,0,0,1,0,0)"><g opacity="1" transform="matrix(1,0,0,1,0,0)"><path fill-rule="evenodd" fill="rgb(51,71,244)" fill-opacity="1" d=" M13.699999809265137,5.039999961853027 C13.3100004196167,4.650000095367432 12.680000305175781,4.650000095367432 12.289999961853027,5.039999961853027 C11.899999618530273,5.429999828338623 11.899999618530273,6.059999942779541 12.289999961853027,6.449999809265137 C12.289999961853027,6.449999809265137 12.289999961853027,6.460000038146973 12.289999961853027,6.460000038146973 C12.680000305175781,6.849999904632568 13.319999694824219,6.849999904632568 13.710000038146973,6.460000038146973 C14.100000381469727,6.070000171661377 14.100000381469727,5.429999828338623 13.710000038146973,5.039999961853027 C13.710000038146973,5.039999961853027 13.699999809265137,5.039999961853027 13.699999809265137,5.039999961853027z M17.510000228881836,0.5 C15.949999809265137,0.49000000953674316 14.239999771118164,0.699999988079071 12.699999809265137,1.1399999856948853 C11.180000305175781,1.5700000524520874 9.729999542236328,2.25 8.770000457763672,3.2100000381469727 C8.770000457763672,3.2100000381469727 5.929999828338623,5.840000152587891 5.929999828338623,5.840000152587891 C5.860000133514404,5.900000095367432 5.769999980926514,5.920000076293945 5.679999828338623,5.889999866485596 C5.679999828338623,5.889999866485596 4.429999828338623,5.449999809265137 4.429999828338623,5.449999809265137 C3.430000066757202,5.110000133514404 2.3299999237060547,5.369999885559082 1.5800000429153442,6.110000133514404 C1.5800000429153442,6.110000133514404 0.4699999988079071,7.21999979019165 0.4699999988079071,7.21999979019165 C0.18000000715255737,7.510000228881836 0.18000000715255737,7.989999771118164 0.4699999988079071,8.279999732971191 C0.4699999988079071,8.279999732971191 10.470000267028809,18.280000686645508 10.470000267028809,18.280000686645508 C10.609999656677246,18.420000076293945 10.800000190734863,18.5 11,18.5 C11.199999809265137,18.5 11.390000343322754,18.420000076293945 11.529999732971191,18.280000686645508 C11.529999732971191,18.280000686645508 12.640000343322754,17.170000076293945 12.640000343322754,17.170000076293945 C13.390000343322754,16.420000076293945 13.649999618530273,15.319999694824219 13.300000190734863,14.319999694824219 C13.300000190734863,14.319999694824219 12.859999656677246,13.069999694824219 12.859999656677246,13.069999694824219 C12.829999923706055,12.979999542236328 12.850000381469727,12.890000343322754 12.90999984741211,12.819999694824219 C12.90999984741211,12.819999694824219 15.539999961853027,9.979999542236328 15.539999961853027,9.979999542236328 C17.420000076293945,8.09000015258789 18.25,4.820000171661377 18.25,1.25 C18.25,0.8399999737739563 17.920000076293945,0.5 17.510000228881836,0.5 C17.510000228881836,0.5 17.510000228881836,0.5 17.510000228881836,0.5z"></path></g></g></g><g transform="matrix(1,0,0,1,0,0)" opacity="1" style="display: block;"><path fill="rgb(0,0,0)" fill-opacity="0" d=" M25,0 C25,0 0,0 0,0 C0,0 0,25 0,25 C0,25 25,25 25,25 C25,25 25,0 25,0z"></path></g></g><g clip-path="url(#__lottie_element_163)" transform="matrix(1,0,0,1,10.333000183105469,26)" opacity="1" style="display: block;"><g clip-path="url(#__lottie_element_175)" transform="matrix(1,0,0,1,27,8)" opacity="1" style="display: block;"><g clip-path="url(#__lottie_element_234)" transform="matrix(0.8181999921798706,0,0,0.8181999921798706,0,0)" opacity="1" style="display: block;"><g transform="matrix(1.333299994468689,0,0,1.333299994468689,0,0)" opacity="1" style="display: block;"><g opacity="1" transform="matrix(1,0,0,1,0,0)"><g opacity="1" transform="matrix(1,0,0,1,0,0)"><g opacity="1" transform="matrix(1,0,0,1,0,0)"><path fill-rule="evenodd" fill="rgb(51,71,244)" fill-opacity="1" d=" M7.960000038146973,0.28999999165534973 C8.350000381469727,0.6800000071525574 8.350000381469727,1.3200000524520874 7.960000038146973,1.7100000381469727 C7.960000038146973,1.7100000381469727 1.9600000381469727,7.710000038146973 1.9600000381469727,7.710000038146973 C1.5700000524520874,8.100000381469727 0.9300000071525574,8.100000381469727 0.5400000214576721,7.710000038146973 C0.15000000596046448,7.320000171661377 0.15000000596046448,6.679999828338623 0.5400000214576721,6.289999961853027 C0.5400000214576721,6.289999961853027 6.539999961853027,0.28999999165534973 6.539999961853027,0.28999999165534973 C6.929999828338623,-0.10000000149011612 7.570000171661377,-0.10000000149011612 7.960000038146973,0.28999999165534973 C7.960000038146973,0.28999999165534973 7.960000038146973,0.28999999165534973 7.960000038146973,0.28999999165534973z"></path></g></g></g></g><g transform="matrix(1,0,0,1,0,0)" opacity="1" style="display: block;"><path fill="rgb(0,0,0)" fill-opacity="0" d=" M11,0 C11,0 0,0 0,0 C0,0 0,11 0,11 C0,11 11,11 11,11 C11,11 11,0 11,0z"></path></g></g></g><g clip-path="url(#__lottie_element_180)" transform="matrix(1,0,0,1,27,9)" opacity="1" style="display: block;"><g clip-path="url(#__lottie_element_245)" transform="matrix(0.8181999921798706,0,0,0.8181999921798706,0,0)" opacity="1" style="display: block;"><g transform="matrix(1.333299994468689,0,0,1.333299994468689,0,0)" opacity="1" style="display: block;"><g opacity="1" transform="matrix(1,0,0,1,0,0)"><g opacity="1" transform="matrix(1,0,0,1,0,0)"><g opacity="1" transform="matrix(1,0,0,1,0,0)"><path fill-rule="evenodd" fill="rgb(51,71,244)" fill-opacity="1" d=" M7.960000038146973,0.28999999165534973 C8.350000381469727,0.6800000071525574 8.350000381469727,1.3200000524520874 7.960000038146973,1.7100000381469727 C7.960000038146973,1.7100000381469727 1.9600000381469727,7.710000038146973 1.9600000381469727,7.710000038146973 C1.5700000524520874,8.100000381469727 0.9300000071525574,8.100000381469727 0.5400000214576721,7.710000038146973 C0.15000000596046448,7.320000171661377 0.15000000596046448,6.679999828338623 0.5400000214576721,6.289999961853027 C0.5400000214576721,6.289999961853027 6.539999961853027,0.28999999165534973 6.539999961853027,0.28999999165534973 C6.929999828338623,-0.10000000149011612 7.570000171661377,-0.10000000149011612 7.960000038146973,0.28999999165534973 C7.960000038146973,0.28999999165534973 7.960000038146973,0.28999999165534973 7.960000038146973,0.28999999165534973z"></path></g></g></g></g><g transform="matrix(1,0,0,1,0,0)" opacity="1" style="display: block;"><path fill="rgb(0,0,0)" fill-opacity="0" d=" M11,0 C11,0 0,0 0,0 C0,0 0,11 0,11 C0,11 11,11 11,11 C11,11 11,0 11,0z"></path></g></g></g><g clip-path="url(#__lottie_element_185)" transform="matrix(1,0,0,1,27,8)" opacity="1" style="display: block;"><g clip-path="url(#__lottie_element_256)" transform="matrix(0.8181999921798706,0,0,0.8181999921798706,0,0)" opacity="1" style="display: block;"><g transform="matrix(1.333299994468689,0,0,1.333299994468689,0,0)" opacity="1" style="display: block;"><g opacity="1" transform="matrix(1,0,0,1,0,0)"><g opacity="1" transform="matrix(1,0,0,1,0,0)"><g opacity="1" transform="matrix(1,0,0,1,0,0)"><path fill-rule="evenodd" fill="rgb(51,71,244)" fill-opacity="1" d=" M7.960000038146973,0.28999999165534973 C8.350000381469727,0.6800000071525574 8.350000381469727,1.3200000524520874 7.960000038146973,1.7100000381469727 C7.960000038146973,1.7100000381469727 1.9600000381469727,7.710000038146973 1.9600000381469727,7.710000038146973 C1.5700000524520874,8.100000381469727 0.9300000071525574,8.100000381469727 0.5400000214576721,7.710000038146973 C0.15000000596046448,7.320000171661377 0.15000000596046448,6.679999828338623 0.5400000214576721,6.289999961853027 C0.5400000214576721,6.289999961853027 6.539999961853027,0.28999999165534973 6.539999961853027,0.28999999165534973 C6.929999828338623,-0.10000000149011612 7.570000171661377,-0.10000000149011612 7.960000038146973,0.28999999165534973 C7.960000038146973,0.28999999165534973 7.960000038146973,0.28999999165534973 7.960000038146973,0.28999999165534973z"></path></g></g></g></g><g transform="matrix(1,0,0,1,0,0)" opacity="1" style="display: block;"><path fill="rgb(0,0,0)" fill-opacity="0" d=" M11,0 C11,0 0,0 0,0 C0,0 0,11 0,11 C0,11 11,11 11,11 C11,11 11,0 11,0z"></path></g></g></g><g clip-path="url(#__lottie_element_190)" transform="matrix(1,0,0,1,30,1)" opacity="1" style="display: block;"><g transform="matrix(1.333299994468689,0,0,1.333299994468689,0,0)" opacity="1" style="display: block;"><g opacity="1" transform="matrix(1,0,0,1,0,0)"><g opacity="1" transform="matrix(1,0,0,1,0,0)"><g opacity="1" transform="matrix(1,0,0,1,0,0)"><path fill-rule="evenodd" fill="rgb(51,71,244)" fill-opacity="1" d=" M4.960000038146973,0.28999999165534973 C5.349999904632568,0.6800000071525574 5.349999904632568,1.3200000524520874 4.960000038146973,1.7100000381469727 C4.960000038146973,1.7100000381469727 1.9600000381469727,4.710000038146973 1.9600000381469727,4.710000038146973 C1.5700000524520874,5.099999904632568 0.9300000071525574,5.099999904632568 0.5400000214576721,4.710000038146973 C0.15000000596046448,4.320000171661377 0.15000000596046448,3.680000066757202 0.5400000214576721,3.2899999618530273 C0.5400000214576721,3.2899999618530273 3.5399999618530273,0.28999999165534973 3.5399999618530273,0.28999999165534973 C3.930000066757202,-0.10000000149011612 4.570000171661377,-0.10000000149011612 4.960000038146973,0.28999999165534973 C4.960000038146973,0.28999999165534973 4.960000038146973,0.28999999165534973 4.960000038146973,0.28999999165534973z"></path></g></g></g></g><g transform="matrix(1,0,0,1,0,0)" opacity="1" style="display: block;"><path fill="rgb(0,0,0)" fill-opacity="0" d=" M7,0 C7,0 0,0 0,0 C0,0 0,7 0,7 C0,7 7,7 7,7 C7,7 7,0 7,0z"></path></g></g><g clip-path="url(#__lottie_element_195)" transform="matrix(1,0,0,1,29,3)" opacity="1" style="display: block;"><g transform="matrix(1.333299994468689,0,0,1.333299994468689,0,0)" opacity="1" style="display: block;"><g opacity="1" transform="matrix(1,0,0,1,0,0)"><g opacity="1" transform="matrix(1,0,0,1,0,0)"><g opacity="1" transform="matrix(1,0,0,1,0,0)"><path fill-rule="evenodd" fill="rgb(51,71,244)" fill-opacity="1" d=" M4.960000038146973,0.28999999165534973 C5.349999904632568,0.6800000071525574 5.349999904632568,1.3200000524520874 4.960000038146973,1.7100000381469727 C4.960000038146973,1.7100000381469727 1.9600000381469727,4.710000038146973 1.9600000381469727,4.710000038146973 C1.5700000524520874,5.099999904632568 0.9300000071525574,5.099999904632568 0.5400000214576721,4.710000038146973 C0.15000000596046448,4.320000171661377 0.15000000596046448,3.680000066757202 0.5400000214576721,3.2899999618530273 C0.5400000214576721,3.2899999618530273 3.5399999618530273,0.28999999165534973 3.5399999618530273,0.28999999165534973 C3.930000066757202,-0.10000000149011612 4.570000171661377,-0.10000000149011612 4.960000038146973,0.28999999165534973 C4.960000038146973,0.28999999165534973 4.960000038146973,0.28999999165534973 4.960000038146973,0.28999999165534973z"></path></g></g></g></g><g transform="matrix(1,0,0,1,0,0)" opacity="1" style="display: block;"><path fill="rgb(0,0,0)" fill-opacity="0" d=" M7,0 C7,0 0,0 0,0 C0,0 0,7 0,7 C0,7 7,7 7,7 C7,7 7,0 7,0z"></path></g></g><g clip-path="url(#__lottie_element_200)" transform="matrix(1,0,0,1,29,11)" opacity="1" style="display: block;"><g transform="matrix(1.333299994468689,0,0,1.333299994468689,0,0)" opacity="1" style="display: block;"><g opacity="1" transform="matrix(1,0,0,1,0,0)"><g opacity="1" transform="matrix(1,0,0,1,0,0)"><g opacity="1" transform="matrix(1,0,0,1,0,0)"><path fill-rule="evenodd" fill="rgb(51,71,244)" fill-opacity="1" d=" M4.960000038146973,0.28999999165534973 C5.349999904632568,0.6800000071525574 5.349999904632568,1.3200000524520874 4.960000038146973,1.7100000381469727 C4.960000038146973,1.7100000381469727 1.9600000381469727,4.710000038146973 1.9600000381469727,4.710000038146973 C1.5700000524520874,5.099999904632568 0.9300000071525574,5.099999904632568 0.5400000214576721,4.710000038146973 C0.15000000596046448,4.320000171661377 0.15000000596046448,3.680000066757202 0.5400000214576721,3.2899999618530273 C0.5400000214576721,3.2899999618530273 3.5399999618530273,0.28999999165534973 3.5399999618530273,0.28999999165534973 C3.930000066757202,-0.10000000149011612 4.570000171661377,-0.10000000149011612 4.960000038146973,0.28999999165534973 C4.960000038146973,0.28999999165534973 4.960000038146973,0.28999999165534973 4.960000038146973,0.28999999165534973z"></path></g></g></g></g><g transform="matrix(1,0,0,1,0,0)" opacity="1" style="display: block;"><path fill="rgb(0,0,0)" fill-opacity="0" d=" M7,0 C7,0 0,0 0,0 C0,0 0,7 0,7 C0,7 7,7 7,7 C7,7 7,0 7,0z"></path></g></g><g clip-path="url(#__lottie_element_205)" transform="matrix(1,0,0,1,30,14)" opacity="1" style="display: block;"><g transform="matrix(1.333299994468689,0,0,1.333299994468689,0,0)" opacity="1" style="display: block;"><g opacity="1" transform="matrix(1,0,0,1,0,0)"><g opacity="1" transform="matrix(1,0,0,1,0,0)"><g opacity="1" transform="matrix(1,0,0,1,0,0)"><path fill-rule="evenodd" fill="rgb(51,71,244)" fill-opacity="1" d=" M4.960000038146973,0.28999999165534973 C5.349999904632568,0.6800000071525574 5.349999904632568,1.3200000524520874 4.960000038146973,1.7100000381469727 C4.960000038146973,1.7100000381469727 1.9600000381469727,4.710000038146973 1.9600000381469727,4.710000038146973 C1.5700000524520874,5.099999904632568 0.9300000071525574,5.099999904632568 0.5400000214576721,4.710000038146973 C0.15000000596046448,4.320000171661377 0.15000000596046448,3.680000066757202 0.5400000214576721,3.2899999618530273 C0.5400000214576721,3.2899999618530273 3.5399999618530273,0.28999999165534973 3.5399999618530273,0.28999999165534973 C3.930000066757202,-0.10000000149011612 4.570000171661377,-0.10000000149011612 4.960000038146973,0.28999999165534973 C4.960000038146973,0.28999999165534973 4.960000038146973,0.28999999165534973 4.960000038146973,0.28999999165534973z"></path></g></g></g></g><g transform="matrix(1,0,0,1,0,0)" opacity="1" style="display: block;"><path fill="rgb(0,0,0)" fill-opacity="0" d=" M7,0 C7,0 0,0 0,0 C0,0 0,7 0,7 C0,7 7,7 7,7 C7,7 7,0 7,0z"></path></g></g><g clip-path="url(#__lottie_element_210)" transform="matrix(1,0,0,1,34,8)" opacity="1" style="display: block;"><g transform="matrix(1.333299994468689,0,0,1.333299994468689,0,0)" opacity="1" style="display: block;"><g opacity="1" transform="matrix(1,0,0,1,0,0)"><g opacity="1" transform="matrix(1,0,0,1,0,0)"><g opacity="1" transform="matrix(1,0,0,1,0,0)"><path fill-rule="evenodd" fill="rgb(51,71,244)" fill-opacity="1" d=" M4.960000038146973,0.28999999165534973 C5.349999904632568,0.6800000071525574 5.349999904632568,1.3200000524520874 4.960000038146973,1.7100000381469727 C4.960000038146973,1.7100000381469727 1.9600000381469727,4.710000038146973 1.9600000381469727,4.710000038146973 C1.5700000524520874,5.099999904632568 0.9300000071525574,5.099999904632568 0.5400000214576721,4.710000038146973 C0.15000000596046448,4.320000171661377 0.15000000596046448,3.680000066757202 0.5400000214576721,3.2899999618530273 C0.5400000214576721,3.2899999618530273 3.5399999618530273,0.28999999165534973 3.5399999618530273,0.28999999165534973 C3.930000066757202,-0.10000000149011612 4.570000171661377,-0.10000000149011612 4.960000038146973,0.28999999165534973 C4.960000038146973,0.28999999165534973 4.960000038146973,0.28999999165534973 4.960000038146973,0.28999999165534973z"></path></g></g></g></g><g transform="matrix(1,0,0,1,0,0)" opacity="1" style="display: block;"><path fill="rgb(0,0,0)" fill-opacity="0" d=" M7,0 C7,0 0,0 0,0 C0,0 0,7 0,7 C0,7 7,7 7,7 C7,7 7,0 7,0z"></path></g></g><g clip-path="url(#__lottie_element_215)" transform="matrix(1,0,0,1,36,5)" opacity="1" style="display: block;"><g transform="matrix(1.333299994468689,0,0,1.333299994468689,0,0)" opacity="1" style="display: block;"><g opacity="1" transform="matrix(1,0,0,1,0,0)"><g opacity="1" transform="matrix(1,0,0,1,0,0)"><g opacity="1" transform="matrix(1,0,0,1,0,0)"><path fill-rule="evenodd" fill="rgb(51,71,244)" fill-opacity="1" d=" M4.960000038146973,0.28999999165534973 C5.349999904632568,0.6800000071525574 5.349999904632568,1.3200000524520874 4.960000038146973,1.7100000381469727 C4.960000038146973,1.7100000381469727 1.9600000381469727,4.710000038146973 1.9600000381469727,4.710000038146973 C1.5700000524520874,5.099999904632568 0.9300000071525574,5.099999904632568 0.5400000214576721,4.710000038146973 C0.15000000596046448,4.320000171661377 0.15000000596046448,3.680000066757202 0.5400000214576721,3.2899999618530273 C0.5400000214576721,3.2899999618530273 3.5399999618530273,0.28999999165534973 3.5399999618530273,0.28999999165534973 C3.930000066757202,-0.10000000149011612 4.570000171661377,-0.10000000149011612 4.960000038146973,0.28999999165534973 C4.960000038146973,0.28999999165534973 4.960000038146973,0.28999999165534973 4.960000038146973,0.28999999165534973z"></path></g></g></g></g><g transform="matrix(1,0,0,1,0,0)" opacity="1" style="display: block;"><path fill="rgb(0,0,0)" fill-opacity="0" d=" M7,0 C7,0 0,0 0,0 C0,0 0,7 0,7 C0,7 7,7 7,7 C7,7 7,0 7,0z"></path></g></g><g clip-path="url(#__lottie_element_220)" transform="matrix(1,0,0,1,23,7)" opacity="1" style="display: block;"><g transform="matrix(1.333299994468689,0,0,1.333299994468689,0,0)" opacity="1" style="display: block;"><g opacity="1" transform="matrix(1,0,0,1,0,0)"><g opacity="1" transform="matrix(1,0,0,1,0,0)"><g opacity="1" transform="matrix(1,0,0,1,0,0)"><path fill-rule="evenodd" fill="rgb(51,71,244)" fill-opacity="1" d=" M4.960000038146973,0.28999999165534973 C5.349999904632568,0.6800000071525574 5.349999904632568,1.3200000524520874 4.960000038146973,1.7100000381469727 C4.960000038146973,1.7100000381469727 1.9600000381469727,4.710000038146973 1.9600000381469727,4.710000038146973 C1.5700000524520874,5.099999904632568 0.9300000071525574,5.099999904632568 0.5400000214576721,4.710000038146973 C0.15000000596046448,4.320000171661377 0.15000000596046448,3.680000066757202 0.5400000214576721,3.2899999618530273 C0.5400000214576721,3.2899999618530273 3.5399999618530273,0.28999999165534973 3.5399999618530273,0.28999999165534973 C3.930000066757202,-0.10000000149011612 4.570000171661377,-0.10000000149011612 4.960000038146973,0.28999999165534973 C4.960000038146973,0.28999999165534973 4.960000038146973,0.28999999165534973 4.960000038146973,0.28999999165534973z"></path></g></g></g></g><g transform="matrix(1,0,0,1,0,0)" opacity="1" style="display: block;"><path fill="rgb(0,0,0)" fill-opacity="0" d=" M7,0 C7,0 0,0 0,0 C0,0 0,7 0,7 C0,7 7,7 7,7 C7,7 7,0 7,0z"></path></g></g><g clip-path="url(#__lottie_element_225)" transform="matrix(1,0,0,1,11.908154487609863,6.913600921630859)" opacity="1" style="display: block;"><g clip-path="url(#__lottie_element_310)" transform="matrix(0.9998477101325989,-0.017450951039791107,0.017450951039791107,0.9998477101325989,2.4993152618408203,12.818546295166016)" opacity="1" style="display: block;"><g clip-path="url(#__lottie_element_325)" transform="matrix(0.8181999921798706,0,0,0.8181999921798706,0,0)" opacity="1" style="display: block;"><g transform="matrix(1.333299994468689,0,0,1.333299994468689,0,0)" opacity="1" style="display: block;"><g opacity="1" transform="matrix(1,0,0,1,0,0)"><g opacity="1" transform="matrix(1,0,0,1,0,0)"><g opacity="1" transform="matrix(1,0,0,1,0,0)"><path fill-rule="evenodd" fill="rgb(51,71,244)" fill-opacity="1" d=" M7.960000038146973,0.28999999165534973 C8.350000381469727,0.6800000071525574 8.350000381469727,1.3200000524520874 7.960000038146973,1.7100000381469727 C7.960000038146973,1.7100000381469727 1.9600000381469727,7.710000038146973 1.9600000381469727,7.710000038146973 C1.5700000524520874,8.100000381469727 0.9300000071525574,8.100000381469727 0.5400000214576721,7.710000038146973 C0.15000000596046448,7.320000171661377 0.15000000596046448,6.679999828338623 0.5400000214576721,6.289999961853027 C0.5400000214576721,6.289999961853027 6.539999961853027,0.28999999165534973 6.539999961853027,0.28999999165534973 C6.929999828338623,-0.10000000149011612 7.570000171661377,-0.10000000149011612 7.960000038146973,0.28999999165534973 C7.960000038146973,0.28999999165534973 7.960000038146973,0.28999999165534973 7.960000038146973,0.28999999165534973z"></path></g></g></g></g><g transform="matrix(1,0,0,1,0,0)" opacity="1" style="display: block;"><path fill="rgb(0,0,0)" fill-opacity="0" d=" M11,0 C11,0 0,0 0,0 C0,0 0,11 0,11 C0,11 11,11 11,11 C11,11 11,0 11,0z"></path></g></g></g><g clip-path="url(#__lottie_element_315)" transform="matrix(0.9993909001350403,-0.03489658609032631,0.03489658609032631,0.9993909001350403,8.023160934448242,15.981101989746094)" opacity="1" style="display: block;"><g transform="matrix(1.333299994468689,0,0,1.333299994468689,0,0)" opacity="1" style="display: block;"><g opacity="1" transform="matrix(1,0,0,1,0,0)"><g opacity="1" transform="matrix(1,0,0,1,0,0)"><g opacity="1" transform="matrix(1,0,0,1,0,0)"><path fill-rule="evenodd" fill="rgb(51,71,244)" fill-opacity="1" d=" M4.960000038146973,0.28999999165534973 C5.349999904632568,0.6800000071525574 5.349999904632568,1.3200000524520874 4.960000038146973,1.7100000381469727 C4.960000038146973,1.7100000381469727 1.9600000381469727,4.710000038146973 1.9600000381469727,4.710000038146973 C1.5700000524520874,5.099999904632568 0.9300000071525574,5.099999904632568 0.5400000214576721,4.710000038146973 C0.15000000596046448,4.320000171661377 0.15000000596046448,3.680000066757202 0.5400000214576721,3.2899999618530273 C0.5400000214576721,3.2899999618530273 3.5399999618530273,0.28999999165534973 3.5399999618530273,0.28999999165534973 C3.930000066757202,-0.10000000149011612 4.570000171661377,-0.10000000149011612 4.960000038146973,0.28999999165534973 C4.960000038146973,0.28999999165534973 4.960000038146973,0.28999999165534973 4.960000038146973,0.28999999165534973z"></path></g></g></g></g><g transform="matrix(1,0,0,1,0,0)" opacity="1" style="display: block;"><path fill="rgb(0,0,0)" fill-opacity="0" d=" M7,0 C7,0 0,0 0,0 C0,0 0,7 0,7 C0,7 7,7 7,7 C7,7 7,0 7,0z"></path></g></g><g clip-path="url(#__lottie_element_320)" transform="matrix(0.999850869178772,0.01726817898452282,-0.01726817898452282,0.999850869178772,1.1911125183105469,8.822946548461914)" opacity="1" style="display: block;"><g transform="matrix(1.333299994468689,0,0,1.333299994468689,0,0)" opacity="1" style="display: block;"><g opacity="1" transform="matrix(1,0,0,1,0,0)"><g opacity="1" transform="matrix(1,0,0,1,0,0)"><g opacity="1" transform="matrix(1,0,0,1,0,0)"><path fill-rule="evenodd" fill="rgb(51,71,244)" fill-opacity="1" d=" M4.960000038146973,0.28999999165534973 C5.349999904632568,0.6800000071525574 5.349999904632568,1.3200000524520874 4.960000038146973,1.7100000381469727 C4.960000038146973,1.7100000381469727 1.9600000381469727,4.710000038146973 1.9600000381469727,4.710000038146973 C1.5700000524520874,5.099999904632568 0.9300000071525574,5.099999904632568 0.5400000214576721,4.710000038146973 C0.15000000596046448,4.320000171661377 0.15000000596046448,3.680000066757202 0.5400000214576721,3.2899999618530273 C0.5400000214576721,3.2899999618530273 3.5399999618530273,0.28999999165534973 3.5399999618530273,0.28999999165534973 C3.930000066757202,-0.10000000149011612 4.570000171661377,-0.10000000149011612 4.960000038146973,0.28999999165534973 C4.960000038146973,0.28999999165534973 4.960000038146973,0.28999999165534973 4.960000038146973,0.28999999165534973z"></path></g></g></g></g><g transform="matrix(1,0,0,1,0,0)" opacity="1" style="display: block;"><path fill="rgb(0,0,0)" fill-opacity="0" d=" M7,0 C7,0 0,0 0,0 C0,0 0,7 0,7 C0,7 7,7 7,7 C7,7 7,0 7,0z"></path></g></g></g><g clip-path="url(#__lottie_element_229)" transform="matrix(1,0,0,1,3.6669979095458984,16)" opacity="0" style="display: block;"><g clip-path="url(#__lottie_element_349)" transform="matrix(1,0,0,1,1.876999855041504,11.107999801635742)" opacity="1" style="display: block;"><g clip-path="url(#__lottie_element_364)" transform="matrix(0.8181999921798706,0,0,0.8181999921798706,0,0)" opacity="1" style="display: block;"><g transform="matrix(1.333299994468689,0,0,1.333299994468689,0,0)" opacity="1" style="display: block;"><g opacity="1" transform="matrix(1,0,0,1,0,0)"><g opacity="1" transform="matrix(1,0,0,1,0,0)"><g opacity="1" transform="matrix(1,0,0,1,0,0)"><path fill-rule="evenodd" fill="rgb(51,71,244)" fill-opacity="1" d=" M7.960000038146973,0.28999999165534973 C8.350000381469727,0.6800000071525574 8.350000381469727,1.3200000524520874 7.960000038146973,1.7100000381469727 C7.960000038146973,1.7100000381469727 1.9600000381469727,7.710000038146973 1.9600000381469727,7.710000038146973 C1.5700000524520874,8.100000381469727 0.9300000071525574,8.100000381469727 0.5400000214576721,7.710000038146973 C0.15000000596046448,7.320000171661377 0.15000000596046448,6.679999828338623 0.5400000214576721,6.289999961853027 C0.5400000214576721,6.289999961853027 6.539999961853027,0.28999999165534973 6.539999961853027,0.28999999165534973 C6.929999828338623,-0.10000000149011612 7.570000171661377,-0.10000000149011612 7.960000038146973,0.28999999165534973 C7.960000038146973,0.28999999165534973 7.960000038146973,0.28999999165534973 7.960000038146973,0.28999999165534973z"></path></g></g></g></g><g transform="matrix(1,0,0,1,0,0)" opacity="1" style="display: block;"><path fill="rgb(0,0,0)" fill-opacity="0" d=" M11,0 C11,0 0,0 0,0 C0,0 0,11 0,11 C0,11 11,11 11,11 C11,11 11,0 11,0z"></path></g></g></g><g clip-path="url(#__lottie_element_354)" transform="matrix(0.9993911981582642,-0.034889593720436096,0.034889593720436096,0.9993911981582642,7.757017135620117,14.232244491577148)" opacity="1" style="display: block;"><g transform="matrix(1.333299994468689,0,0,1.333299994468689,0,0)" opacity="1" style="display: block;"><g opacity="1" transform="matrix(1,0,0,1,0,0)"><g opacity="1" transform="matrix(1,0,0,1,0,0)"><g opacity="1" transform="matrix(1,0,0,1,0,0)"><path fill-rule="evenodd" fill="rgb(51,71,244)" fill-opacity="1" d=" M4.960000038146973,0.28999999165534973 C5.349999904632568,0.6800000071525574 5.349999904632568,1.3200000524520874 4.960000038146973,1.7100000381469727 C4.960000038146973,1.7100000381469727 1.9600000381469727,4.710000038146973 1.9600000381469727,4.710000038146973 C1.5700000524520874,5.099999904632568 0.9300000071525574,5.099999904632568 0.5400000214576721,4.710000038146973 C0.15000000596046448,4.320000171661377 0.15000000596046448,3.680000066757202 0.5400000214576721,3.2899999618530273 C0.5400000214576721,3.2899999618530273 3.5399999618530273,0.28999999165534973 3.5399999618530273,0.28999999165534973 C3.930000066757202,-0.10000000149011612 4.570000171661377,-0.10000000149011612 4.960000038146973,0.28999999165534973 C4.960000038146973,0.28999999165534973 4.960000038146973,0.28999999165534973 4.960000038146973,0.28999999165534973z"></path></g></g></g></g><g transform="matrix(1,0,0,1,0,0)" opacity="1" style="display: block;"><path fill="rgb(0,0,0)" fill-opacity="0" d=" M7,0 C7,0 0,0 0,0 C0,0 0,7 0,7 C0,7 7,7 7,7 C7,7 7,0 7,0z"></path></g></g><g clip-path="url(#__lottie_element_359)" transform="matrix(1,0,0,1,0.8769998550415039,7.107999801635742)" opacity="1" style="display: block;"><g transform="matrix(1.333299994468689,0,0,1.333299994468689,0,0)" opacity="1" style="display: block;"><g opacity="1" transform="matrix(1,0,0,1,0,0)"><g opacity="1" transform="matrix(1,0,0,1,0,0)"><g opacity="1" transform="matrix(1,0,0,1,0,0)"><path fill-rule="evenodd" fill="rgb(51,71,244)" fill-opacity="1" d=" M4.960000038146973,0.28999999165534973 C5.349999904632568,0.6800000071525574 5.349999904632568,1.3200000524520874 4.960000038146973,1.7100000381469727 C4.960000038146973,1.7100000381469727 1.9600000381469727,4.710000038146973 1.9600000381469727,4.710000038146973 C1.5700000524520874,5.099999904632568 0.9300000071525574,5.099999904632568 0.5400000214576721,4.710000038146973 C0.15000000596046448,4.320000171661377 0.15000000596046448,3.680000066757202 0.5400000214576721,3.2899999618530273 C0.5400000214576721,3.2899999618530273 3.5399999618530273,0.28999999165534973 3.5399999618530273,0.28999999165534973 C3.930000066757202,-0.10000000149011612 4.570000171661377,-0.10000000149011612 4.960000038146973,0.28999999165534973 C4.960000038146973,0.28999999165534973 4.960000038146973,0.28999999165534973 4.960000038146973,0.28999999165534973z"></path></g></g></g></g><g transform="matrix(1,0,0,1,0,0)" opacity="1" style="display: block;"><path fill="rgb(0,0,0)" fill-opacity="0" d=" M7,0 C7,0 0,0 0,0 C0,0 0,7 0,7 C0,7 7,7 7,7 C7,7 7,0 7,0z"></path></g></g></g></g></g></svg>